<?xml version="1.0" encoding="UTF-8" standalone="no"?>
<!-- Created with Inkscape (http://www.inkscape.org/) -->

<svg
   width="75mm"
   height="75mm"
   viewBox="0 0 75 75"
   version="1.1"
   id="svg5"
   inkscape:version="1.2.2 (b0a8486541, 2022-12-01)"
   sodipodi:docname="ebpf.svg"
   xmlns:inkscape="http://www.inkscape.org/namespaces/inkscape"
   xmlns:sodipodi="http://sodipodi.sourceforge.net/DTD/sodipodi-0.dtd"
   xmlns="http://www.w3.org/2000/svg"
   xmlns:svg="http://www.w3.org/2000/svg">
  <sodipodi:namedview
     id="namedview7"
     pagecolor="#ffffff"
     bordercolor="#666666"
     borderopacity="1.0"
     inkscape:showpageshadow="2"
     inkscape:pageopacity="0.0"
     inkscape:pagecheckerboard="0"
     inkscape:deskcolor="#d1d1d1"
     inkscape:document-units="mm"
     showgrid="false"
     inkscape:zoom="2.2576626"
     inkscape:cx="178.28173"
     inkscape:cy="135.31694"
     inkscape:window-width="1920"
     inkscape:window-height="1028"
     inkscape:window-x="1920"
     inkscape:window-y="0"
     inkscape:window-maximized="1"
     inkscape:current-layer="layer1" />
  <defs
     id="defs2">
    <inkscape:path-effect
       effect="bspline"
       id="path-effect7848"
       is_visible="true"
       lpeversion="1"
       weight="33.333333"
       steps="2"
       helper_size="0"
       apply_no_weight="true"
       apply_with_weight="true"
       only_selected="false" />
    <inkscape:path-effect
       effect="bspline"
       id="path-effect6911"
       is_visible="true"
       lpeversion="1"
       weight="33.333333"
       steps="2"
       helper_size="0"
       apply_no_weight="true"
       apply_with_weight="true"
       only_selected="false" />
    <inkscape:path-effect
       effect="bspline"
       id="path-effect1693"
       is_visible="true"
       lpeversion="1"
       weight="33.333333"
       steps="2"
       helper_size="0"
       apply_no_weight="true"
       apply_with_weight="true"
       only_selected="false" />
    <inkscape:path-effect
       effect="bspline"
       id="path-effect1693-3"
       is_visible="true"
       lpeversion="1"
       weight="33.333333"
       steps="2"
       helper_size="0"
       apply_no_weight="true"
       apply_with_weight="true"
       only_selected="false" />
    <inkscape:path-effect
       effect="bspline"
       id="path-effect1693-6"
       is_visible="true"
       lpeversion="1"
       weight="33.333333"
       steps="2"
       helper_size="0"
       apply_no_weight="true"
       apply_with_weight="true"
       only_selected="false" />
    <inkscape:path-effect
       effect="bspline"
       id="path-effect7848-0"
       is_visible="true"
       lpeversion="1"
       weight="33.333333"
       steps="2"
       helper_size="0"
       apply_no_weight="true"
       apply_with_weight="true"
       only_selected="false" />
  </defs>
  <g
     inkscape:label="Layer 1"
     inkscape:groupmode="layer"
     id="layer1"
     transform="rotate(125.50589,85.343559,107.29538)">
    <g
       id="g601"
       transform="translate(-17.082086,76.941362)">
      <g
         inkscape:groupmode="layer"
         id="layer2"
         inkscape:label="Layer 2"
         transform="translate(-6.9118903,1.6435261)">
        <path
           style="fill:#f6c177;fill-opacity:1;stroke:#000000;stroke-width:3.77953;stroke-linecap:round;stroke-linejoin:round;paint-order:stroke fill markers"
           d="m 354.18095,378.92221 c -8.64574,9.16128 -18.48129,17.1101 -29.13169,23.82338 -1.37398,0.79869 -3.80683,2.53436 -1.89978,4.15426 10.04135,6.94634 20.3455,13.61722 28.54861,22.85792 1.45667,1.26008 3.63869,4.84358 5.66214,2.48459 3.07237,-5.5634 5.10886,-11.76973 6.25387,-18.01763 1.17629,-8.62632 -0.73146,-17.23507 -3.51965,-25.36575 -1.31663,-3.42276 -2.10907,-7.25569 -4.22654,-10.23004 -0.619,-0.0163 -1.20212,-0.21997 -1.68696,0.29327 z"
           id="path2208"
           transform="scale(0.26458333)" />
        <path
           style="fill:#f6c177;fill-opacity:1;stroke:#000000;stroke-width:3.77953;stroke-linecap:round;stroke-linejoin:round;paint-order:stroke fill markers"
           d="m 374.92281,364.64791 c -4.55639,0.3303 -9.31958,0.20336 -13.69381,1.5918 -1.94991,1.54627 -1.69678,4.48873 -3.23386,6.40666 -2.11407,2.21675 -0.98414,4.86659 0.16155,7.22225 4.81327,12.00011 9.02156,25.43015 5.96177,38.40136 -1.25463,6.20661 -4.37299,11.83165 -6.87109,17.52839 0.75076,3.36311 2.89237,6.5087 3.38716,10.06117 1.04438,3.54298 0.54579,7.35799 1.7044,10.77631 5.09174,1.25298 10.54752,0.54878 15.78219,0.86684 2.62004,-1.33844 3.61361,-4.70861 5.30765,-7.05978 5.67078,-10.47602 10.11322,-22.0768 10.43955,-34.10633 0.38598,-15.16407 -5.23343,-29.59918 -10.83902,-43.41223 -1.37484,-2.63543 -2.01792,-5.801 -4.01539,-8.00739 -1.33469,-0.24347 -2.73211,-0.24725 -4.0911,-0.26905 z"
           id="path2210"
           transform="scale(0.26458333)" />
        <path
           style="fill:#f6c177;fill-opacity:1;stroke:#000000;stroke-width:3.77953;stroke-linecap:round;stroke-linejoin:round;paint-order:stroke fill markers"
           d="m 383.87496,365.5208 c -2.98669,0.6803 -0.75638,3.91078 -0.17821,5.64657 4.95117,11.74114 9.35859,23.89944 11.16943,36.55952 0.8597,9.77138 -0.25625,19.69572 -3.72776,28.89552 -2.12484,6.43767 -5.41622,12.39199 -8.57671,18.27263 -0.0904,2.93268 3.52847,1.29495 5.26161,0.96308 11.30416,-2.96716 22.05384,-8.68269 29.82473,-17.5578 5.52464,-5.85289 9.47377,-13.31599 11.13474,-21.18526 1.26511,-8.84995 -0.0449,-18.19369 -4.88268,-25.83995 -8.49048,-14.07848 -23.88921,-23.45664 -40.02515,-25.75431 z"
           id="path2212"
           transform="scale(0.26458333)" />
        <path
           style="fill:#191724;fill-opacity:1;stroke:#000000;stroke-width:3.77953;stroke-linecap:round;stroke-linejoin:round;paint-order:stroke fill markers"
           d="m 374.2889,364.53977 c -4.38283,0.088 -8.79761,0.398 -13.08133,1.34907 -1.27735,0.42219 -1.23478,1.99828 -1.73041,3.0388 -0.72755,2.07055 -1.78413,4.00284 -2.86201,5.90239 -0.4999,1.48693 0.56517,2.88213 1.01667,4.23687 2.65291,6.37846 4.92582,12.94869 6.35707,19.62849 0.55419,2.64572 0.98822,5.33263 1.11688,8.01933 0.31003,8.43859 -2.10754,16.78195 -5.80813,24.30048 -0.74403,1.60601 -1.70549,3.02036 -2.43787,4.62118 -0.32892,1.14913 0.77269,2.02858 1.12976,3.04889 1.28466,2.43368 2.1438,5.06474 2.63371,7.76942 0.63541,3.0352 0.86476,6.19492 1.16181,9.30891 0.20014,1.00165 1.24581,1.32238 2.13841,1.36767 3.23701,0.42317 6.49778,0.71703 9.76524,0.582 1.69975,-0.0845 3.44207,0.0812 5.10973,-0.27559 1.07372,-0.38633 1.42878,-1.64245 2.10761,-2.4753 5.70221,-8.83634 10.00672,-18.65311 12.11025,-28.97995 1.45085,-6.9778 1.62001,-14.22825 0.31951,-21.24362 -2.0071,-11.32419 -5.94639,-22.20915 -10.48037,-32.74396 -0.99467,-2.21799 -1.93311,-4.47803 -3.04648,-6.63203 -0.71248,-1.05328 -2.14936,-0.63146 -3.23241,-0.79327 -0.76213,-0.0296 -1.52501,-0.0358 -2.28764,-0.0298 z"
           id="path1223"
           transform="scale(0.26458333)" />
      </g>
      <ellipse
         style="fill:#191724;fill-opacity:1;stroke:#191724;stroke-width:1;stroke-linecap:round;stroke-linejoin:round;stroke-dasharray:none;stroke-opacity:1;paint-order:stroke fill markers"
         id="path603"
         cx="-113.47968"
         cy="61.804184"
         rx="11.635605"
         ry="10.923636"
         transform="matrix(-0.03368702,-0.99943243,0.99942613,-0.03387352,0,0)" />
      <path
         id="path607"
         style="fill:none;stroke:#191724;stroke-width:1;stroke-linecap:round;stroke-linejoin:round;stroke-dasharray:none;stroke-opacity:1;paint-order:stroke fill markers"
         d="m 91.577311,97.984333 c 8.212856,-0.27836 15.071549,5.476317 15.290089,11.939007 0.21858,6.46387 -6.23842,12.66868 -14.451276,12.94703 -8.212851,0.27836 -15.058457,-5.06692 -15.290093,-11.939 -0.231631,-6.8721 6.238429,-12.668681 14.45128,-12.947037 z"
         sodipodi:nodetypes="sasss" />
      <path
         id="path607-7"
         style="fill:#faf4ed;fill-opacity:1;stroke:#191724;stroke-width:2;stroke-linecap:round;stroke-linejoin:round;stroke-dasharray:none;stroke-opacity:1;paint-order:stroke fill markers"
         inkscape:transform-center-x="-3.1673953"
         inkscape:transform-center-y="-12.35211"
         d="m 82.372582,84.432271 c -4.013361,-0.01138 -8.671963,5.757448 -9.859863,10.169922 -1.288577,4.786408 4.35684,14.132467 4.35684,14.132467 0,0 9.574851,-5.25173 10.86342,-10.038143 1.288578,-4.786412 -0.153461,-13.001844 -4.356324,-14.132471 -0.328347,-0.08833 -0.663957,-0.13081 -1.004073,-0.131775 z m -5.503023,24.704439 c 0,0 -5.6449,9.34606 -4.356323,14.13247 1.28857,4.78641 6.660568,11.16826 10.863419,10.03763 4.202863,-1.13063 5.644902,-9.34554 4.356324,-14.13196 -1.288569,-4.7864 -10.86342,-10.03814 -10.86342,-10.03814 z" />
      <path
         style="fill:none;stroke:#191724;stroke-width:1;stroke-linecap:round;stroke-linejoin:round;stroke-dasharray:none;stroke-opacity:1"
         d="m 64.494867,118.10714 c -4.344979,0.16348 -8.691074,0.32701 -11.814736,2.30484 -3.123661,1.97783 -5.024356,5.77115 -6.925768,9.5659"
         id="path1691"
         inkscape:path-effect="#path-effect1693"
         inkscape:original-d="m 64.494867,118.10714 c -4.345027,0.1622 -8.691123,0.32572 -13.038317,0.49058 -1.899682,3.79229 -3.800377,7.58561 -5.702187,11.38016" />
      <path
         style="fill:none;stroke:#191724;stroke-width:1;stroke-linecap:round;stroke-linejoin:round;stroke-dasharray:none;stroke-opacity:1"
         d="m 64.715076,104.6046 c -4.34607,0.13108 -8.69326,0.26219 -11.942971,-1.49964 -3.249711,-1.76182 -5.401491,-5.417789 -7.554085,-9.075139"
         id="path1691-2"
         inkscape:path-effect="#path-effect1693-6"
         inkscape:original-d="m 64.715076,104.6046 c -4.346031,0.13238 -8.693221,0.26347 -13.041593,0.39333 -2.150702,-3.65502 -4.302485,-7.310985 -6.455463,-10.968109" />
      <path
         style="fill:none;stroke:#191724;stroke-width:1;stroke-linecap:butt;stroke-linejoin:miter;stroke-dasharray:none;stroke-opacity:1"
         d="m 87.117277,100.86496 c 0,0 2.465913,5.22276 2.465913,8.7872 0,4.11599 -2.465913,7.58431 -2.465913,7.58431"
         id="path2775"
         sodipodi:nodetypes="csc" />
      <path
         style="fill:none;stroke:#191724;stroke-width:1;stroke-linecap:butt;stroke-linejoin:miter;stroke-dasharray:none;stroke-opacity:1"
         d="m 93.496417,97.850366 c 0,0 4.018248,7.950174 4.018248,13.376014 0,6.26542 -4.018248,11.54495 -4.018248,11.54495"
         id="path2775-0"
         sodipodi:nodetypes="csc" />
      <path
         style="fill:#191724;fill-opacity:1;stroke:#191724;stroke-width:1;stroke-linecap:round;stroke-linejoin:round;stroke-dasharray:none;stroke-opacity:1"
         d="m 106.43711,106.48249 5.20824,3.91868 -5.57889,4.1362 0.95653,-3.54788 v -3.21237 z"
         id="path4991" />
      <path
         id="path5789"
         style="display:inline;fill:#ea9d34;fill-opacity:1;stroke:#191724;stroke-width:11.9012;stroke-linecap:round;stroke-linejoin:round;stroke-dasharray:none;stroke-opacity:1;paint-order:stroke fill markers"
         inkscape:transform-center-x="3.9030125e-06"
         inkscape:transform-center-y="2.5133351e-06"
         d="m 134.59077,625.12095 a 8.9144715,8.9374058 59.59281 0 0 11.80683,-4.51291 8.9144715,8.9374058 59.59281 0 0 -1.28464,-9.34917 l 23.96336,-18.29342 24.03487,16.86575 a 8.9144715,8.9374058 59.59281 0 0 -1.14902,1.88598 8.9144715,8.9374058 59.59281 0 0 4.49461,11.77634 8.9144715,8.9374058 59.59281 0 0 11.80121,-4.51541 8.9144715,8.9374058 59.59281 0 0 -4.49209,-11.78196 8.9144715,8.9374058 59.59281 0 0 -5.01408,-0.65794 l -3.77441,-29.23127 25.99124,-12.08877 a 8.9144715,8.9374058 59.59281 0 0 4.80535,5.2396 8.9144715,8.9374058 59.59281 0 0 11.80121,-4.51541 8.9144715,8.9374058 59.59281 0 0 -4.49209,-11.78196 8.9144715,8.9374058 59.59281 0 0 -11.64705,4.18669 l -27.07238,-11.29475 2.59346,-29.26339 a 8.9144715,8.9374058 59.59281 0 0 8.24274,-5.2792 8.9144715,8.9374058 59.59281 0 0 -4.49209,-11.78195 8.9144715,8.9374058 59.59281 0 0 -11.80935,4.51853 8.9144715,8.9374058 59.59281 0 0 1.72106,9.83326 L 167.857,532.45314 144.82706,516.29112 a 8.9144715,8.9374058 59.59281 0 0 0.8961,-1.54738 8.9144715,8.9374058 59.59281 0 0 -4.50022,-11.77884 8.9144715,8.9374058 59.59281 0 0 -11.80122,4.51541 8.9144715,8.9374058 59.59281 0 0 4.49461,11.77634 8.9144715,8.9374058 59.59281 0 0 4.41147,0.7397 l 3.63062,28.10968 -26.33167,12.24693 a 8.9144715,8.9374058 59.59281 0 0 -4.99313,-5.90255 8.9144715,8.9374058 59.59281 0 0 -11.803732,4.52103 8.9144715,8.9374058 59.59281 0 0 4.494612,11.77634 8.9144715,8.9374058 59.59281 0 0 11.52504,-3.94468 l 27.72009,11.56314 -2.64038,29.84872 a 8.9144715,8.9374058 59.59281 0 0 -9.8331,5.12965 8.9144715,8.9374058 59.59281 0 0 4.49462,11.77634 z"
         transform="matrix(0.07237347,0.04258442,-0.04247515,0.07255967,100.96403,56.124125)" />
      <g
         aria-label=":)"
         id="text6578"
         style="font-size:5.29167px;line-height:1.25;-inkscape-font-specification:sans-serif;stroke-width:0.264583">
        <text
           xml:space="preserve"
           style="font-size:18.374px;line-height:1.25;font-family:sans-serif;-inkscape-font-specification:sans-serif;fill:#faf4ed;fill-opacity:1;stroke-width:0.0700042"
           x="59.107113"
           y="116.04884"
           id="text6637"><tspan
             sodipodi:role="line"
             id="tspan6635"
             style="fill:#faf4ed;fill-opacity:1;stroke-width:0.0700042"
             x="59.107113"
             y="116.04884">:</tspan></text>
        <path
           style="fill:none;fill-opacity:1;stroke:#faf4ed;stroke-width:1;stroke-linecap:round;stroke-linejoin:round;stroke-dasharray:none;stroke-opacity:1;paint-order:stroke fill markers"
           id="path8077"
           d="m 67.431328,106.69385 c 0.257125,0.32948 0.409903,0.7307 0.549918,1.12006 0.210566,0.58555 0.226068,0.70246 0.392218,1.3291 0.118309,0.53718 0.227714,0.96085 0.284475,1.50935 0.04699,0.45404 0.05112,0.99277 0.0048,1.44907 -0.05045,0.49686 -0.125801,0.7325 -0.243568,1.20629 -0.142202,0.48783 -0.309784,0.97012 -0.533511,1.42695 -0.04111,0.084 0.07772,0.14216 0.118833,0.0581 v 0 c 0.227462,-0.46541 0.398878,-0.95619 0.543075,-1.45323 0.120394,-0.48602 0.196004,-0.72185 0.24732,-1.23202 0.0469,-0.46623 0.04197,-1.01176 -0.0062,-1.47572 -0.05754,-0.55367 -0.16781,-0.98062 -0.287298,-1.52276 -0.167624,-0.63138 -0.184372,-0.75346 -0.397034,-1.34374 -0.145635,-0.40423 -0.305475,-0.81963 -0.574686,-1.16003 -0.06261,-0.0695 -0.160898,0.0191 -0.09828,0.0885 z" />
      </g>
    </g>
  </g>
</svg>
